<svg
  width="512"
  height="512"
  fill="none"
  xmlns="http://www.w3.org/2000/svg">
  <style>
    @media (prefers-color-scheme:dark){
      path {
        fill:#579dff
      }
    }
  </style>
  <path 
    d="
      M256.136 38c1.768 0 3.735.814 5.896 2.443 6.875 5.05 12.769 9.858 17.68 14.42 4.91 4.561 9.134 8.963 12.669 13.198 1.571 2.28 2.356 5.214 2.356 8.796v68.918c0 .413.011.823.019 1.225v41.596l34.8-20.181c.356-.206.704-.42 1.046-.628l60.478-35.071c3.369-1.954 6.29-2.737 8.76-2.349 5.421.958 11.328 2.431 17.716 4.422 6.389 1.991 13.48 4.714 21.272 8.169 2.68 1.406 4.415 2.795 5.201 4.161.884 1.538 1.165 3.656.841 6.35-.917 8.505-2.114 16.036-3.592 22.589-1.478 6.552-3.162 12.426-5.046 17.62-1.181 2.506-3.316 4.655-6.405 6.447l-59.422 34.46c-.355.206-.703.42-1.046.628l-35.847 20.786 96.325 55.859c3.369 1.955 5.505 4.104 6.405 6.448 1.884 5.193 3.567 11.068 5.045 17.62 1.478 6.552 2.675 14.083 3.593 22.589.127 3.035-.202 5.237-.988 6.604-.884 1.538-2.569 2.841-5.054 3.906-7.793 3.455-14.884 6.179-21.273 8.169-6.388 1.991-12.295 3.465-17.715 4.422-2.751.226-5.672-.557-8.761-2.348l-96.333-55.865v111.74c0 3.908-.786 6.84-2.356 8.795-3.536 4.235-7.759 8.637-12.67 13.199-4.911 4.562-10.805 9.368-17.68 14.419-2.553 1.629-4.617 2.444-6.188 2.444-1.768 0-3.734-.815-5.895-2.444-6.875-5.051-12.769-9.857-17.679-14.419-4.911-4.562-9.134-8.964-12.67-13.199-1.571-2.281-2.356-5.213-2.357-8.795V323.415l-96.34 55.869c-3.37 1.954-6.291 2.738-8.762 2.349-5.42-.958-11.327-2.431-17.715-4.422-6.389-1.991-13.48-4.714-21.273-8.169-2.68-1.406-4.415-2.795-5.2-4.161-.884-1.538-1.166-3.656-.842-6.35.918-8.505 2.115-16.036 3.593-22.589 1.478-6.552 3.16-12.427 5.045-17.621 1.181-2.506 3.317-4.654 6.406-6.446l96.35-55.876-34.817-20.19c-.356-.206-.715-.402-1.066-.596l-60.477-35.071c-3.37-1.955-5.505-4.104-6.406-6.448-1.884-5.193-3.567-11.068-5.044-17.62-1.478-6.552-2.676-14.083-3.593-22.589-.128-3.035.202-5.237.987-6.604.884-1.538 2.57-2.841 5.055-3.906 7.792-3.455 14.883-6.179 21.272-8.17 6.389-1.991 12.295-3.464 17.715-4.421 2.751-.226 5.673.556 8.762 2.347l59.422 34.46c.355.206.714.402 1.065.596l35.863 20.797v-40.36c0-.412-.01-.822-.018-1.224V76.857c0-3.908.785-6.84 2.355-8.796 3.536-4.235 7.76-8.637 12.67-13.199 4.911-4.562 10.806-9.368 17.681-14.419 2.552-1.628 4.616-2.442 6.187-2.443z
      m-2.064 167.394c-1.966 0-4.916 1.574-8.848 4.724a444.62 444.62 0 00-18.432 17.159c-6.063 5.803-11.388 11.357-15.976 16.662-2.13 2.653-3.85 4.808-5.161 6.466-1.311 1.658-1.967 3.565-1.967 5.72s.656 4.062 1.967 5.72c1.311 1.492 3.031 3.564 5.161 6.217 4.588 5.47 9.749 11.19 15.483 17.159a224.38 224.38 0 0018.434 16.662c2.621 1.989 4.505 3.315 5.652 3.978 1.311.498 2.54.746 3.687.746 1.147 0 2.376-.248 3.686-.746 1.311-.663 3.114-1.989 5.408-3.978a344.982 344.982 0 0018.187-16.662c5.899-5.969 11.061-11.523 15.485-16.662a651.064 651.064 0 005.406-6.714c1.474-1.658 2.213-3.565 2.213-5.72s-.739-4.062-2.213-5.72c-1.311-1.823-3.031-3.979-5.161-6.466-9.34-10.942-20.645-22.216-33.917-33.821-4.097-3.15-7.128-4.724-9.094-4.724z"
    fill="#0c66e4"
  />
</svg>