<svg 
  width="512"
  height="512"
  viewBox="0 0 512 512"
  fill="none"
  xmlns="http://www.w3.org/2000/svg"
  xmlns:svg="http://www.w3.org/2000/svg">
  <style>
    path {
      fill: #0c66e4;
      fill-opacity: 1;
    }
    @media (prefers-color-scheme: dark) {
      path {
        fill: #579dff;
      }
    }
  </style>
  <path
    d="
      M256.136 38
      C257.904 38 259.871 38.8143 262.032 40.4434
      C268.907 45.4939 274.801 50.3005 279.712 54.8623
      C284.622 59.424 288.846 63.8256 292.381 68.0615
      C293.952 70.3419 294.737 73.2746 294.737 76.8574
      V145.775
      C294.737 146.188 294.748 146.598 294.756 147
      V188.596
      L329.556 168.415
      C329.912 168.209 330.26 167.995 330.602 167.787
      L391.08 132.716
      C394.449 130.762 397.37 129.979 399.84 130.367
      C405.261 131.325 411.168 132.798 417.556 134.789
      C423.945 136.78 431.036 139.503 438.828 142.958
      C441.508 144.364 443.243 145.753 444.029 147.119
      C444.913 148.657 445.194 150.775 444.87 153.469
      C443.953 161.974 442.756 169.505 441.278 176.058
      C439.8 182.61 438.116 188.484 436.232 193.678
      C435.051 196.184 432.916 198.333 429.827 200.125
      L370.405 234.585
      C370.05 234.791 369.702 235.005 369.359 235.213
      L333.512 255.999
      L429.837 311.858
      C433.206 313.813 435.342 315.962 436.242 318.306
      C438.126 323.499 439.809 329.374 441.287 335.926
      C442.765 342.478 443.962 350.009 444.88 358.515
      C445.007 361.55 444.678 363.752 443.892 365.119
      C443.008 366.657 441.323 367.96 438.838 369.025
      C431.045 372.48 423.954 375.204 417.565 377.194
      C411.177 379.185 405.27 380.659 399.85 381.616
      C397.099 381.842 394.178 381.059 391.089 379.268
      L294.756 323.403
      V435.143
      C294.756 439.051 293.97 441.983 292.4 443.938
      C288.864 448.173 284.641 452.575 279.73 457.137
      C274.819 461.699 268.925 466.505 262.05 471.556
      C259.497 473.185 257.433 474 255.862 474
      C254.094 474 252.128 473.185 249.967 471.556
      C243.092 466.505 237.198 461.699 232.288 457.137
      C227.377 452.575 223.154 448.173 219.618 443.938
      C218.047 441.657 217.262 438.725 217.261 435.143
      V323.415
      L120.921 379.284
      C117.551 381.238 114.63 382.022 112.159 381.633
      C106.739 380.675 100.832 379.202 94.444 377.211
      C88.0555 375.22 80.9635 372.497 73.1715 369.042
      C70.4909 367.636 68.7564 366.247 67.9704 364.881
      C67.0866 363.343 66.8053 361.225 67.1295 358.531
      C68.0467 350.026 69.2444 342.495 70.7223 335.942
      C72.2002 329.39 73.8828 323.515 75.7672 318.321
      C76.9481 315.815 79.0837 313.667 82.1725 311.875
      L178.523 255.999
      L143.706 235.809
      C143.35 235.603 142.991 235.407 142.64 235.213
      L82.1627 200.142
      C78.7933 198.187 76.6576 196.038 75.7575 193.694
      C73.8732 188.501 72.1903 182.626 70.7126 176.074
      C69.2347 169.522 68.0369 161.991 67.1198 153.485
      C66.9919 150.45 67.3218 148.248 68.1071 146.881
      C68.991 145.343 70.6767 144.04 73.1618 142.975
      C80.954 139.52 88.0455 136.796 94.4342 134.805
      C100.823 132.814 106.729 131.341 112.149 130.384
      C114.9 130.158 117.822 130.94 120.911 132.731
      L180.333 167.191
      C180.688 167.397 181.047 167.593 181.398 167.787
      L217.261 188.584
      V148.224
      C217.261 147.812 217.251 147.402 217.243 147
      V76.8574
      C217.243 72.9491 218.028 70.0163 219.598 68.0615
      C223.134 63.8256 227.358 59.4241 232.268 54.8623
      C237.179 50.3005 243.074 45.4939 249.949 40.4434
      C252.501 38.8149 254.565 38.0006 256.136 38
      Z
      
      M254.072 205.394
      C252.106 205.394 249.156 206.968 245.224 210.118
      C238.998 215.589 232.854 221.309 226.792 227.277
      C220.729 233.08 215.404 238.634 210.816 243.939
      C208.686 246.592 206.966 248.747 205.655 250.405
      C204.344 252.063 203.688 253.97 203.688 256.125
      C203.688 258.28 204.344 260.187 205.655 261.845
      C206.966 263.337 208.686 265.409 210.816 268.062
      C215.404 273.532 220.565 279.252 226.299 285.221
      C232.034 291.023 238.179 296.578 244.733 301.883
      C247.354 303.872 249.238 305.198 250.385 305.861
      C251.696 306.359 252.925 306.607 254.072 306.607
      C255.219 306.607 256.448 306.359 257.758 305.861
      C259.069 305.198 260.872 303.872 263.166 301.883
      C269.392 296.578 275.455 291.023 281.353 285.221
      C287.252 279.252 292.414 273.698 296.838 268.559
      C299.131 265.741 300.933 263.503 302.244 261.845
      C303.718 260.187 304.457 258.28 304.457 256.125
      C304.457 253.97 303.718 252.063 302.244 250.405
      C300.933 248.582 299.213 246.426 297.083 243.939
      C287.743 232.997 276.438 221.723 263.166 210.118
      C259.069 206.968 256.038 205.394 254.072 205.394
      Z"
  />
</svg>
