<svg width="918" height="306" viewBox="0 0 918 306" fill="none" xmlns="http://www.w3.org/2000/svg">
<style>
    @media (prefers-color-scheme:dark){
      path {
        fill:#579dff
      }
    }
  </style>
<path d="M377.606 105.149V144.464H438.721C441.476 144.464 443.541 144.924 444.919 145.844C447.903 147.913 451.001 150.385 454.215 153.259C457.429 156.133 460.814 159.581 464.372 163.605C465.52 165.099 466.094 166.306 466.094 167.226C466.094 168.261 465.52 169.41 464.372 170.675C460.814 174.698 457.429 178.147 454.215 181.021C451.001 183.895 447.903 186.366 444.919 188.435C443.312 189.355 441.246 189.815 438.721 189.815H377.606V276.55C377.606 279.999 376.86 282.413 375.368 283.792C373.991 285.057 371.581 285.689 368.138 285.689H331.469C328.026 285.689 325.558 285.057 324.066 283.792C322.689 282.413 322 279.999 322 276.55V84.6293C322 73.1336 323.033 64.052 325.099 57.3845C327.28 50.6021 331.411 45.7739 337.494 42.8999C343.692 39.9111 352.701 38.4166 364.522 38.4166H445.779C448.534 38.4166 450.6 38.8764 451.977 39.7961C454.961 41.8653 458.06 44.3369 461.273 47.2108C464.487 50.0847 467.873 53.5335 471.431 57.557C472.578 59.0514 473.152 60.2584 473.152 61.1781C473.152 62.2127 472.578 63.3623 471.431 64.6268C467.873 68.6503 464.487 72.099 461.273 74.9729C458.06 77.8469 454.961 80.3184 451.977 82.3877C450.37 83.3073 448.304 83.7671 445.779 83.7671H397.232C389.657 83.7671 384.492 85.3766 381.738 88.5953C378.983 91.8141 377.606 97.3321 377.606 105.149Z" fill="#0C66E4" />
<path d="M550.105 141.878H550.794C559.402 117.967 574.896 106.011 597.276 106.011C600.145 106.011 602.498 106.184 604.334 106.529C606.17 106.759 607.433 106.988 608.121 107.218C609.843 107.793 610.704 109.115 610.704 111.184V152.741C610.704 156.305 608.638 157.282 604.506 155.673C603.129 155.098 601.12 154.523 598.481 153.948C595.956 153.259 592.398 152.914 587.807 152.914C575.986 152.914 566.747 157.282 560.09 166.019C553.434 174.641 550.105 186.424 550.105 201.368V276.55C550.105 279.999 549.359 282.413 547.867 283.792C546.49 285.057 544.08 285.689 540.637 285.689H505.173C501.73 285.689 499.262 285.057 497.77 283.792C496.393 282.413 495.704 279.999 495.704 276.55V132.049C495.704 129.29 496.278 127.163 497.426 125.669C499.836 122.45 502.705 119.174 506.034 115.84C509.477 112.506 513.666 108.943 518.601 105.149C519.519 104.459 520.437 104 521.355 103.77C522.274 103.54 523.077 103.425 523.766 103.425C525.372 103.425 526.979 104 528.586 105.149C538.112 112.621 544.768 119.001 548.556 124.289C549.589 125.669 550.105 127.278 550.105 129.118V141.878Z" fill="#0C66E4" />
<path d="M628.608 51.1768C628.608 49.6824 629.067 48.3604 629.985 47.2108C630.903 46.0613 632.108 44.5668 633.6 42.7275C636.814 39.0489 640.544 35.1978 644.79 31.1743C649.037 27.0359 653.341 23.0699 657.702 19.2763C660.457 17.0921 662.522 16 663.9 16C665.277 16 667.4 17.0921 670.269 19.2763C679.566 27.3233 687.485 35.1403 694.027 42.7275C695.519 44.4519 696.724 45.9463 697.642 47.2108C698.675 48.3604 699.191 49.6824 699.191 51.1768C699.191 52.6713 698.675 53.9933 697.642 55.1429C696.724 56.2924 695.461 57.8443 693.855 59.7986C690.756 63.3623 687.14 67.2133 683.009 71.3518C678.877 75.3753 674.631 79.2263 670.269 82.905C668.663 84.2845 667.4 85.2041 666.482 85.6639C665.564 86.0088 664.703 86.1812 663.9 86.1812C663.096 86.1812 662.235 86.0088 661.317 85.6639C660.514 85.2041 659.194 84.2845 657.358 82.905C652.767 79.2263 648.463 75.3753 644.446 71.3518C640.429 67.2133 636.814 63.2473 633.6 59.4537C632.108 57.6144 630.903 56.1775 629.985 55.1429C629.067 53.9933 628.608 52.6713 628.608 51.1768ZM690.928 276.55C690.928 279.999 690.182 282.413 688.69 283.792C687.313 285.057 684.902 285.689 681.459 285.689H645.996C642.552 285.689 640.085 285.057 638.593 283.792C637.216 282.413 636.527 279.999 636.527 276.55V118.254C636.527 114.806 637.216 112.449 638.593 111.184C640.085 109.805 642.552 109.115 645.996 109.115H681.459C684.902 109.115 687.313 109.805 688.69 111.184C690.182 112.449 690.928 114.806 690.928 118.254V276.55Z" fill="#0C66E4"/>
<path d="M822.282 290C793.36 290 770.463 282.298 753.592 266.894C736.721 251.489 728.286 228.555 728.286 198.092C728.286 166.824 737.008 143.487 754.453 128.083C772.013 112.564 795.426 104.804 824.692 104.804C852.926 104.804 875.535 112.449 892.521 127.738C909.507 142.913 918 165.329 918 194.988C918 225.911 909.507 249.478 892.521 265.687C875.535 281.896 852.122 290 822.282 290ZM824.004 248.271C836.628 248.271 846.154 244.362 852.581 236.545C859.008 228.613 862.222 215.106 862.222 196.023C862.222 177.859 858.951 165.099 852.409 157.742C845.982 150.27 836.399 146.534 823.659 146.534C811.379 146.534 801.681 150.557 794.565 158.604C787.564 166.536 784.064 179.469 784.064 197.402C784.064 216.14 787.392 229.303 794.049 236.89C800.82 244.477 810.805 248.271 824.004 248.271Z" fill="#0C66E4" />
<path d="M133.097 0C134.341 0.000153719 135.725 0.571499 137.245 1.71484C142.083 5.25958 146.231 8.63325 149.687 11.835C153.142 15.0366 156.115 18.1257 158.603 21.0986C159.708 22.699 160.26 24.7571 160.26 27.2715V75.6406C160.26 75.9299 160.268 76.2178 160.274 76.5V105.693L184.762 91.5303C185.012 91.3856 185.257 91.2349 185.498 91.0889L228.057 66.4746C230.428 65.1035 232.483 64.5544 234.222 64.8271C238.036 65.4992 242.192 66.5326 246.688 67.9297C251.183 69.3269 256.174 71.2383 261.657 73.6631C263.544 74.6501 264.764 75.6248 265.318 76.584C265.939 77.6632 266.136 79.1495 265.908 81.04C265.263 87.0095 264.421 92.2947 263.381 96.8936C262.341 101.492 261.156 105.616 259.83 109.261C258.999 111.02 257.497 112.528 255.323 113.785L213.507 137.97C213.257 138.114 213.013 138.265 212.772 138.411L187.546 152.999L255.329 192.203C257.7 193.575 259.204 195.084 259.837 196.729C261.163 200.373 262.348 204.496 263.388 209.095C264.428 213.693 265.27 218.979 265.915 224.948C266.005 227.078 265.773 228.624 265.221 229.584C264.599 230.663 263.413 231.578 261.664 232.325C256.181 234.75 251.19 236.661 246.694 238.059C242.199 239.456 238.043 240.49 234.229 241.162C232.292 241.321 230.237 240.772 228.063 239.515L160.274 200.307V278.729C160.273 281.472 159.72 283.529 158.615 284.901C156.127 287.874 153.155 290.964 149.699 294.165C146.244 297.367 142.096 300.741 137.258 304.285C135.462 305.428 134.009 306 132.903 306C131.659 306 130.275 305.429 128.755 304.285C123.917 300.74 119.769 297.367 116.314 294.165C112.858 290.963 109.886 287.874 107.398 284.901C106.293 283.301 105.741 281.244 105.74 278.729V200.314L37.9445 239.525C35.5731 240.897 33.517 241.447 31.7784 241.174C27.9644 240.502 23.8081 239.467 19.3126 238.07C14.8169 236.673 9.82623 234.762 4.3429 232.337C2.45642 231.35 1.23588 230.376 0.682739 229.417C0.0607226 228.338 -0.136337 226.851 0.0919189 224.96C0.737315 218.99 1.5793 213.705 2.61926 209.106C3.6592 204.508 4.84404 200.385 6.17004 196.74C7.00106 194.981 8.50332 193.472 10.6769 192.215L78.4796 152.999L53.9786 138.829C53.7285 138.684 53.4755 138.547 53.2286 138.411L10.671 113.797C8.29985 112.425 6.79678 110.917 6.16321 109.272C4.83716 105.627 3.6524 101.504 2.61243 96.9053C1.57248 92.3065 0.730467 87.0212 0.085083 81.0518C-0.0048844 78.9216 0.226743 77.3754 0.779419 76.416C1.40154 75.337 2.58766 74.4221 4.33606 73.6748C9.81939 71.25 14.8101 69.3386 19.3058 67.9414C23.8012 66.5443 27.9576 65.51 31.7716 64.8379C33.7078 64.6794 35.7638 65.2292 37.9376 66.4863L79.7531 90.6709C80.0031 90.8155 80.2553 90.9527 80.5021 91.0889L105.74 105.686V77.3594C105.74 77.0701 105.732 76.7822 105.727 76.5V27.2715C105.727 24.5286 106.28 22.4706 107.385 21.0986C109.873 18.1258 112.845 15.0365 116.301 11.835C119.757 8.63342 123.905 5.25937 128.742 1.71484C130.539 0.571903 131.991 0.000222553 133.097 0ZM131.644 117.482C130.26 117.482 128.184 118.588 125.417 120.799C121.036 124.639 116.712 128.653 112.445 132.842C108.179 136.914 104.432 140.812 101.203 144.535C99.7044 146.397 98.4938 147.91 97.5714 149.073C96.649 150.237 96.1876 151.575 96.1876 153.088C96.1876 154.6 96.649 155.939 97.5714 157.103C98.4938 158.15 99.7044 159.604 101.203 161.466C104.432 165.306 108.064 169.32 112.1 173.509C116.135 177.581 120.459 181.479 125.071 185.202C126.916 186.598 128.242 187.53 129.049 187.995C129.971 188.344 130.837 188.519 131.644 188.519C132.451 188.518 133.315 188.344 134.237 187.995C135.16 187.53 136.428 186.598 138.042 185.202C142.424 181.479 146.69 177.581 150.841 173.509C154.992 169.32 158.624 165.422 161.737 161.814C163.351 159.837 164.62 158.266 165.542 157.103C166.58 155.939 167.099 154.6 167.099 153.088C167.099 151.575 166.58 150.237 165.542 149.073C164.62 147.793 163.409 146.28 161.91 144.535C155.338 136.856 147.382 128.944 138.042 120.799C135.16 118.588 133.027 117.483 131.644 117.482Z" fill="#0C66E4" />
</svg>
